{"title":"Dumb and Dumber 2 2014 CAM x264 AAC-MiLLENiUM","uid":11546522,"size":815107020,"categoryP":"video","categoryS":"movies","magnet":"?xt=urn:btih:dd37daab652170c88c94ce82a66403a645df8639&amp;dn=Dumb+and+Dumber+2+2014+CAM+x264+AAC-MiLLENiUM&amp;tr=udp%3A%2F%2Ftracker.openbittorrent.com%3A80&amp;tr=udp%3A%2F%2Fopen.demonii.com%3A1337&amp;tr=udp%3A%2F%2Ftracker.coppersurfer.tk%3A6969&amp;tr=udp%3A%2F%2Fexodus.desync.com%3A6969","seeders":29,"leechers":11,"uploader":"xxxlavalxxx","files":-1,"time":1416737528,"description":"[IMG]http://i.imgur.com/7AqCYKk.jpg[/IMG]\n &lt;a href=&quot;\nhttp://www.imdb.com/title/tt2096672/&quot; rel=&quot;nofollow&quot; target=&quot;_NEW&quot;&gt;\nhttp://www.imdb.com/title/tt2096672/&lt;/a&gt;\n\n\nIt's been 20 years and Harry Dunn has found something out - he has a daughter! Lloyd Christmas, his equally dim witted friend, takes one look at a picture of her, develops a crush, and insists the two track her down. What ensues when Harry finally agrees is a bizarre encounter with an old lady and more hilarity because of their sheer stupidity.\n\nDirectors: Bobby Farrelly, Peter Farrelly\nWriters: Sean Anders (screenplay), Mike Cerrone\nStars: Jim Carrey, Jeff Daniels, Rob Riggle \nGenres: Comedy\nCountry: USA\nLanguage: English\n\n\nSource: 720p HDCAM FIRST ENG x264 Pimp4003 [THANKS]\nIMDb Information: http://www.imdb.com/title/tt2096672/\nSample Included: yes\nNOTES: Resynced the audio so its all in sync now including after the 1 hour mark  video just adjusted rgb, sat, contrast, whitebalance, and a bit extra \n\nGeneral\nComplete name: Dumb and Dumber 2 2014 CAM x264 AAC-MiLLENiUM.mp4\nFormat: MPEG-4\nFormat profile: Base Media\nCodec ID: isom\nFile size: 758 MiB\nDuration: 1h 42mn\nOverall bit rate mode: Variable\nOverall bit rate: 1 033 Kbps\nEncoded date: UTC 2014-11-23 06:04:35\nTagged date: UTC 2014-11-23 06:04:35\n\nVideo\nID: 1\nFormat: AVC\nFormat/Info: Advanced Video Codec\nFormat profile: &lt;a class=&quot;__cf_email__&quot; href=&quot;/cdn-cgi/l/email-protection&quot; data-cfemail=&quot;c088a9a7a8808cf4eef1&quot;&gt;[email&amp;#160;protected]&lt;/a&gt;&lt;script cf-hash='f9e31' type=&quot;text/javascript&quot;&gt;\n/* &lt;![CDATA[ */!function(){try{var t=&quot;currentScript&quot;in document?document.currentScript:function(){for(var t=document.getElementsByTagName(&quot;script&quot;),e=t.length;e--;)if(t[e].getAttribute(&quot;cf-hash&quot;))return t[e]}();if(t&amp;&amp;t.previousSibling){var e,r,n,i,c=t.previousSibling,a=c.getAttribute(&quot;data-cfemail&quot;);if(a){for(e=&quot;&quot;,r=parseInt(a.substr(0,2),16),n=2;a.length-n;n+=2)i=parseInt(a.substr(n,2),16)^r,e+=String.fromCharCode(i);e=document.createTextNode(e),c.parentNode.replaceChild(e,c)}}}catch(u){}}();/* ]]&gt; */&lt;/script&gt;\nFormat settings, CABAC: Yes\nFormat settings, ReFrames: 3 frames\nCodec ID: avc1\nCodec ID/Info: Advanced Video Coding\nDuration: 1h 42mn\nBit rate mode: Variable\nBit rate: 898 Kbps\nMaximum bit rate: 40.0 Mbps\nWidth: 720 pixels\nHeight: 304 pixels\nDisplay aspect ratio: 2.35:1\nFrame rate mode: Constant\nFrame rate: 59.940 fps\nColor space: YUV\nChroma subsampling: 4:2:0\nBit depth: 8 bits\nScan type: Progressive\nBits/(Pixel*Frame): 0.068\nStream size: 658 MiB (87%)\nWriting library: x264 core 142 r2479 dd79a61\nColor range: Full\n\nAudio\nID: 2\nFormat: AAC\nFormat/Info: Advanced Audio Codec\nFormat profile: LC\nCodec ID: 40\nDuration: 1h 42mn\nBit rate mode: Variable\nBit rate: 128 Kbps\nMaximum bit rate: 147 Kbps\nChannel(s): 2 channels\nChannel positions: Front: L R\nSampling rate: 48.0 KHz\nCompression mode: Lossy\nStream size: 93.9 MiB (12%)\nLanguage: English\nEncoded date: UTC 2014-11-23 06:06:22\nTagged date: UTC 2014-11-23 06:06:26\n\n\nscreens\n &lt;a href=&quot;\nhttp://i.imgur.com/CVls6WN.jpg&quot; rel=&quot;nofollow&quot; target=&quot;_NEW&quot;&gt;\nhttp://i.imgur.com/CVls6WN.jpg&lt;/a&gt; &lt;a href=&quot;\nhttp://i.imgur.com/M7sV7de.jpg&quot; rel=&quot;nofollow&quot; target=&quot;_NEW&quot;&gt;\nhttp://i.imgur.com/M7sV7de.jpg&lt;/a&gt; &lt;a href=&quot;\nhttp://i.imgur.com/rJvx3sx.jpg&quot; rel=&quot;nofollow&quot; target=&quot;_NEW&quot;&gt;\nhttp://i.imgur.com/rJvx3sx.jpg&lt;/a&gt; &lt;a href=&quot;\nhttp://i.imgur.com/amgeTLO.jpg&quot; rel=&quot;nofollow&quot; target=&quot;_NEW&quot;&gt;\nhttp://i.imgur.com/amgeTLO.jpg&lt;/a&gt; &lt;a href=&quot;\nhttp://i.imgur.com/1DkPJgO.jpg&quot; rel=&quot;nofollow&quot; target=&quot;_NEW&quot;&gt;\nhttp://i.imgur.com/1DkPJgO.jpg&lt;/a&gt; &lt;a href=&quot;\nhttp://i.imgur.com/B6YiOO7.jpg&quot; rel=&quot;nofollow&quot; target=&quot;_NEW&quot;&gt;\nhttp://i.imgur.com/B6YiOO7.jpg&lt;/a&gt;","torrent":{"xt":"urn:btih:dd37daab652170c88c94ce82a66403a645df8639","amp;dn":"Dumb+and+Dumber+2+2014+CAM+x264+AAC-MiLLENiUM","amp;tr":["udp%3A%2F%2Ftracker.openbittorrent.com%3A80","udp%3A%2F%2Fopen.demonii.com%3A1337","udp%3A%2F%2Ftracker.coppersurfer.tk%3A6969","udp%3A%2F%2Fexodus.desync.com%3A6969"],"infoHash":"dd37daab652170c88c94ce82a66403a645df8639","infoHashBuffer":{"type":"Buffer","data":[221,55,218,171,101,33,112,200,140,148,206,130,166,100,3,166,69,223,134,57]},"announce":[],"urlList":[]}}